HIERARCHY
ROOT Hips
{
  OFFSET 5.84602e-005 68.8428 3.50346
  CHANNELS 6 Xposition Yposition Zposition Zrotation Xrotation Yrotation
  JOINT Spine
  {
    OFFSET 0 8.597 -4.6522
    CHANNELS 3 Zrotation Xrotation Yrotation
    JOINT Spine1
    {
      OFFSET 0 7.8454 0.4098
      CHANNELS 3 Zrotation Xrotation Yrotation
      JOINT Spine2
      {
        OFFSET 0 9.7078 -2.1609
        CHANNELS 3 Zrotation Xrotation Yrotation
        JOINT Neck
        {
          OFFSET 0 21.8761 -0.4549
          CHANNELS 3 Zrotation Xrotation Yrotation
          JOINT Head
          {
            OFFSET 0 12.3537 3.3602
            CHANNELS 3 Zrotation Xrotation Yrotation
            End Site
            {
              OFFSET 0.0001 18.9506 0.5657
            }
          }
        }
        JOINT LeftShoulder
        {
          OFFSET 2.2086 21.1115 7.2329
          CHANNELS 3 Zrotation Xrotation Yrotation
          JOINT LeftArm
          {
            OFFSET 13.1193 3.0282 -4.8998
            CHANNELS 3 Zrotation Xrotation Yrotation
            JOINT LeftForeArm
            {
              OFFSET 27.4081 -0.0973053 -0.2375
              CHANNELS 3 Zrotation Xrotation Yrotation
              JOINT LeftHand
              {
                OFFSET 22.8641 0.0662994 -0.1369
                CHANNELS 3 Zrotation Xrotation Yrotation
                JOINT LeftHandIndex1
                {
                  OFFSET 8.8614 0.775009 2.4612
                  CHANNELS 3 Zrotation Xrotation Yrotation
                  JOINT LeftHandIndex2
                  {
                    OFFSET 3.3146 -0.808304 0.5841
                    CHANNELS 3 Zrotation Xrotation Yrotation
                    JOINT LeftHandIndex3
                    {
                      OFFSET 2.2628 -0.552002 0.3989
                      CHANNELS 3 Zrotation Xrotation Yrotation
                      End Site
                      {
                        OFFSET 1.6102 -0.4807 0.2612
                      }
                    }
                  }
                }
                JOINT LeftHandMiddle1
                {
                  OFFSET 8.9937 0.895004 0.2143
                  CHANNELS 3 Zrotation Xrotation Yrotation
                  JOINT LeftHandMiddle2
                  {
                    OFFSET 4.0984 0.0113983 -0.0242
                    CHANNELS 3 Zrotation Xrotation Yrotation
                    JOINT LeftHandMiddle3
                    {
                      OFFSET 2.2716 0.00689697 -0.0138001
                      CHANNELS 3 Zrotation Xrotation Yrotation
                      End Site
                      {
                        OFFSET 2.0404 -0.1441 0.0027
                      }
                    }
                  }
                }
                JOINT LeftHandRing1
                {
                  OFFSET 8.5234 0.597198 -2.0164
                  CHANNELS 3 Zrotation Xrotation Yrotation
                  JOINT LeftHandRing2
                  {
                    OFFSET 3.7188 -0.188293 -0.2328
                    CHANNELS 3 Zrotation Xrotation Yrotation
                    JOINT LeftHandRing3
                    {
                      OFFSET 2.1191 -0.106598 -0.1332
                      CHANNELS 3 Zrotation Xrotation Yrotation
                      End Site
                      {
                        OFFSET 1.8737 -0.2304 -0.0886
                      }
                    }
                  }
                }
                JOINT LeftHandPinky1
                {
                  OFFSET 7.9094 -0.601089 -3.4825
                  CHANNELS 3 Zrotation Xrotation Yrotation
                  JOINT LeftHandPinky2
                  {
                    OFFSET 2.2874 -0.477005 -0.6314
                    CHANNELS 3 Zrotation Xrotation Yrotation
                    JOINT LeftHandPinky3
                    {
                      OFFSET 1.6774 -0.349396 -0.4633
                      CHANNELS 3 Zrotation Xrotation Yrotation
                      End Site
                      {
                        OFFSET 1.4888 -0.4091 -0.3416
                      }
                    }
                  }
                }
                JOINT LeftHandThumb1
                {
                  OFFSET 1.833 -1.3875 1.3896
                  CHANNELS 3 Zrotation Xrotation Yrotation
                  JOINT LeftHandThumb2
                  {
                    OFFSET 3.4129 -1.121 2.5732
                    CHANNELS 3 Zrotation Xrotation Yrotation
                    JOINT LeftHandThumb3
                    {
                      OFFSET 2.2474 -0.804199 1.6192
                      CHANNELS 3 Zrotation Xrotation Yrotation
                      End Site
                      {
                        OFFSET 1.6527 -0.5689 1.1317
                      }
                    }
                  }
                }
              }
            }
          }
        }
        JOINT RightShoulder
        {
          OFFSET -2.2086 21.1115 7.2329
          CHANNELS 3 Zrotation Xrotation Yrotation
          JOINT RightArm
          {
            OFFSET -13.1216 3.0287 -4.9007
            CHANNELS 3 Zrotation Xrotation Yrotation
            JOINT RightForeArm
            {
              OFFSET -27.4081 -0.0973053 -0.2375
              CHANNELS 3 Zrotation Xrotation Yrotation
              JOINT RightHand
              {
                OFFSET -22.8641 0.0664063 -0.1369
                CHANNELS 3 Zrotation Xrotation Yrotation
                JOINT RightHandIndex1
                {
                  OFFSET -8.8614 0.774994 2.4612
                  CHANNELS 3 Zrotation Xrotation Yrotation
                  JOINT RightHandIndex2
                  {
                    OFFSET -3.3146 -0.808304 0.5841
                    CHANNELS 3 Zrotation Xrotation Yrotation
                    JOINT RightHandIndex3
                    {
                      OFFSET -2.2628 -0.552002 0.3989
                      CHANNELS 3 Zrotation Xrotation Yrotation
                      End Site
                      {
                        OFFSET -1.6102 -0.4807 0.2612
                      }
                    }
                  }
                }
                JOINT RightHandMiddle1
                {
                  OFFSET -8.9937 0.894989 0.2143
                  CHANNELS 3 Zrotation Xrotation Yrotation
                  JOINT RightHandMiddle2
                  {
                    OFFSET -4.0984 0.0113983 -0.0242
                    CHANNELS 3 Zrotation Xrotation Yrotation
                    JOINT RightHandMiddle3
                    {
                      OFFSET -2.2716 0.00691223 -0.0138001
                      CHANNELS 3 Zrotation Xrotation Yrotation
                      End Site
                      {
                        OFFSET -2.0404 -0.1441 0.0027
                      }
                    }
                  }
                }
                JOINT RightHandRing1
                {
                  OFFSET -8.5234 0.597198 -2.0164
                  CHANNELS 3 Zrotation Xrotation Yrotation
                  JOINT RightHandRing2
                  {
                    OFFSET -3.7188 -0.188309 -0.2328
                    CHANNELS 3 Zrotation Xrotation Yrotation
                    JOINT RightHandRing3
                    {
                      OFFSET -2.1191 -0.106598 -0.1332
                      CHANNELS 3 Zrotation Xrotation Yrotation
                      End Site
                      {
                        OFFSET -1.8737 -0.2304 -0.0886
                      }
                    }
                  }
                }
                JOINT RightHandPinky1
                {
                  OFFSET -7.9094 -0.601105 -3.4825
                  CHANNELS 3 Zrotation Xrotation Yrotation
                  JOINT RightHandPinky2
                  {
                    OFFSET -2.2874 -0.477005 -0.6314
                    CHANNELS 3 Zrotation Xrotation Yrotation
                    JOINT RightHandPinky3
                    {
                      OFFSET -1.6774 -0.349396 -0.4633
                      CHANNELS 3 Zrotation Xrotation Yrotation
                      End Site
                      {
                        OFFSET -1.4888 -0.4091 -0.3416
                      }
                    }
                  }
                }
                JOINT RightHandThumb1
                {
                  OFFSET -1.833 -1.38751 1.3896
                  CHANNELS 3 Zrotation Xrotation Yrotation
                  JOINT RightHandThumb2
                  {
                    OFFSET -3.41299 -1.12099 2.5732
                    CHANNELS 3 Zrotation Xrotation Yrotation
                    JOINT RightHandThumb3
                    {
                      OFFSET -2.24741 -0.804108 1.6192
                      CHANNELS 3 Zrotation Xrotation Yrotation
                      End Site
                      {
                        OFFSET -1.6527 -0.5689 1.1317
                      }
                    }
                  }
                }
              }
            }
          }
        }
      }
    }
  }
  JOINT RightUpLeg
  {
    OFFSET -9.1966 3.8861 -0.7581
    CHANNELS 3 Zrotation Xrotation Yrotation
    JOINT RightLeg
    {
      OFFSET -0.7359 -41.0265 0
      CHANNELS 3 Zrotation Xrotation Yrotation
      JOINT RightFoot
      {
        OFFSET 0 -40.2855 0
        CHANNELS 3 Zrotation Xrotation Yrotation
        JOINT RightToeBase
        {
          OFFSET 0 -5.6122 11.7359
          CHANNELS 3 Zrotation Xrotation Yrotation
          End Site
          {
            OFFSET 0 0 7.8731
          }
        }
      }
    }
  }
  JOINT LeftUpLeg
  {
    OFFSET 9.1965 3.8864 -0.7581
    CHANNELS 3 Zrotation Xrotation Yrotation
    JOINT LeftLeg
    {
      OFFSET 0.7359 -41.0268 0
      CHANNELS 3 Zrotation Xrotation Yrotation
      JOINT LeftFoot
      {
        OFFSET 0 -40.2855 0
        CHANNELS 3 Zrotation Xrotation Yrotation
        JOINT LeftToeBase
        {
          OFFSET 0 -5.6122 11.7359
          CHANNELS 3 Zrotation Xrotation Yrotation
          End Site
          {
            OFFSET 0 0 7.8731
          }
        }
      }
    }
  }
}
MOTION
Frames:	6
Frame Time:	0.0333333
-0.0169911 24.0189 66.4142 89.3125 -89.7452 -90.4204 -0.26795 7.14279 -0.194528 -0.517346 14.2869 -0.359322 -0.517346 14.2868 -0.359323 -1.45284e-005 8.99215 4.33589e-006 1.58858e-007 -56.1063 6.46067e-007 29.5999 -35.7505 -0.970663 -46.5922 -5.99198 -52.8184 -93.8483 -38.0576 -148.812 -41.7472 -0.687958 -19.909 -2.43318e-006 -1.96005e-006 -1.67304e-006 -5.70672e-006 -7.85001e-007 -2.16844e-006 -2.35149e-006 -2.2764e-006 -4.14196e-007 -2.43318e-006 -1.96005e-006 -1.67304e-006 -0.014619 -8.7797e-005 1.77135e-006 -2.39241e-006 -2.11809e-006 -1.04389e-006 -2.43318e-006 -1.96005e-006 -1.67304e-006 -0.0187184 -0.00116856 5.44124e-005 -2.39244e-006 -2.11806e-006 -1.04394e-006 -2.43318e-006 -1.96005e-006 -1.67304e-006 -0.0122918 -0.00325187 0.000681668 -2.39244e-006 -2.11811e-006 -1.04377e-006 -2.43318e-006 -1.96005e-006 -1.67304e-006 -5.70672e-006 -7.85001e-007 -2.16844e-006 -2.35149e-006 -2.2764e-006 -4.14196e-007 -29.5804 -35.5947 0.0841232 46.6581 -5.61091 52.8977 93.5827 -37.9866 148.839 41.4712 -0.642098 19.7796 -1.59028e-015 3.97569e-015 1.59028e-015 0 9.54166e-015 -0 1.07589e-031 2.5842e-015 -2.38542e-015 -1.59028e-015 3.97569e-015 1.59028e-015 0.0150143 -9.08061e-005 -4.38818e-006 1.59028e-015 5.96354e-015 7.95139e-016 -1.59028e-015 3.97569e-015 1.59028e-015 0.0189965 -0.00119132 -5.53643e-005 -1.80383e-007 8.74384e-008 9.13125e-007 -1.59028e-015 3.97569e-015 1.59028e-015 0.0122598 -0.00324433 -0.000678214 1.43125e-014 1.25234e-014 -3.97569e-015 -1.59028e-015 3.97569e-015 1.59028e-015 0 9.54166e-015 -0 1.07589e-031 2.5842e-015 -2.38542e-015 -87.1715 -57.4993 -65.1406 93.2369 73.305 -96.6114 -11.2194 37.316 0.68216 -5.66057e-007 3.75422e-006 4.64757e-007 76.1487 -59.3784 56.1426 -93.323 73.239 96.7392 11.1387 36.7936 -0.573054 4.94821e-006 -4.87491e-006 7.03953e-007 
-0.0169911 24.0189 66.4142 89.3125 -89.7452 -90.4204 -0.26795 7.14279 -0.194528 -0.517346 14.2869 -0.359322 -0.517346 14.2868 -0.359323 -1.46439e-005 8.99215 6.02026e-006 2.56137e-007 -56.1063 5.51488e-007 29.5999 -35.7505 -0.970663 -46.5922 -5.992 -52.8184 -93.8483 -38.0576 -148.812 -41.7472 -0.687965 -19.909 1.19616e-006 1.05911e-006 5.2181e-007 6.86204e-006 2.00229e-006 2.06083e-006 1.19616e-006 1.05911e-006 5.2181e-007 1.19616e-006 1.05911e-006 5.2181e-007 -0.0145974 -8.55682e-005 9.29557e-006 1.1962e-006 1.05904e-006 5.21944e-007 1.19616e-006 1.05911e-006 5.2181e-007 -0.0187511 -0.00117317 6.74149e-005 1.19622e-006 1.05903e-006 5.21971e-007 1.19616e-006 1.05911e-006 5.2181e-007 -0.0122795 -0.00325257 0.0006807 1.19622e-006 1.05906e-006 5.21888e-007 1.19616e-006 1.05911e-006 5.2181e-007 6.86204e-006 2.00229e-006 2.06083e-006 1.19616e-006 1.05911e-006 5.2181e-007 -29.5804 -35.5947 0.0841232 46.6581 -5.61092 52.8977 93.5827 -37.9866 148.839 41.4712 -0.642097 19.7797 2.45316e-006 -2.02461e-006 1.08875e-006 4.29909e-006 5.15732e-007 2.60227e-006 1.22658e-006 -1.0123e-006 5.44374e-007 2.45316e-006 -2.02461e-006 1.08875e-006 0.0149667 -8.81475e-005 -1.25151e-006 1.22662e-006 -1.01223e-006 5.44505e-007 2.45316e-006 -2.02461e-006 1.08875e-006 0.0189733 -0.00118765 -5.78749e-005 1.22664e-006 -1.01222e-006 5.44528e-007 2.45316e-006 -2.02461e-006 1.08875e-006 0.0122679 -0.00324694 -0.000674888 1.22663e-006 -1.01225e-006 5.44446e-007 2.45316e-006 -2.02461e-006 1.08875e-006 4.29909e-006 5.15732e-007 2.60227e-006 1.22658e-006 -1.0123e-006 5.44374e-007 -87.1715 -57.4993 -65.1406 93.2369 73.305 -96.6114 -11.2194 37.316 0.68216 -5.66057e-007 3.75422e-006 4.64757e-007 76.1487 -59.3784 56.1426 -93.323 73.239 96.7392 11.1387 36.7936 -0.573054 4.94821e-006 -4.87491e-006 7.03953e-007 
-0.0169911 24.0189 66.4142 89.3125 -89.7452 -90.4204 -0.268989 7.16626 -0.194033 -0.519469 14.3333 -0.3581 -0.519469 14.3333 -0.3581 -5.57873e-006 8.9917 2.40255e-007 6.7918e-007 -56.5727 4.59284e-007 29.615 -35.8906 -0.376689 -46.8282 -5.54433 -53.0063 -93.2306 -37.7422 -148.574 -41.4441 -0.822479 -19.7708 -1.19622e-006 -1.05908e-006 -5.21679e-007 -5.70683e-006 -7.84809e-007 -2.16825e-006 -1.19622e-006 -1.05908e-006 -5.21679e-007 -1.19622e-006 -1.05908e-006 -5.21679e-007 -0.0145968 -9.15786e-005 4.54352e-006 -1.19626e-006 -1.05902e-006 -5.21812e-007 -1.19622e-006 -1.05908e-006 -5.21679e-007 -0.0187424 -0.00117379 5.59164e-005 -1.19628e-006 -1.059e-006 -5.21839e-007 -1.19622e-006 -1.05908e-006 -5.21679e-007 -0.012274 -0.00325096 0.000683425 -1.19627e-006 -1.05903e-006 -5.21756e-007 -1.19622e-006 -1.05908e-006 -5.21679e-007 -5.70683e-006 -7.84809e-007 -2.16825e-006 -1.19622e-006 -1.05908e-006 -5.21679e-007 -29.7127 -35.7311 -0.590533 46.9051 -5.15647 53.0588 92.9812 -37.6777 148.609 41.1255 -0.798586 19.7102 1.43045e-006 6.57632e-008 4.22439e-006 -1.78328e-007 8.70372e-008 9.13431e-007 1.22659e-006 -1.01228e-006 5.44342e-007 1.43045e-006 6.57632e-008 4.22439e-006 0.0150065 -9.09922e-005 -1.56572e-006 1.04695e-006 -9.25047e-007 1.45789e-006 1.43045e-006 6.57632e-008 4.22439e-006 0.0189858 -0.00118919 -5.18024e-005 1.40668e-006 -1.09949e-006 -3.68926e-007 1.43045e-006 6.57632e-008 4.22439e-006 0.0122215 -0.00323249 -0.000672125 1.22665e-006 -1.01223e-006 5.44413e-007 1.43045e-006 6.57632e-008 4.22439e-006 -1.78328e-007 8.70372e-008 9.13431e-007 1.22659e-006 -1.01228e-006 5.44342e-007 -87.1715 -57.4993 -65.1406 93.2369 73.305 -96.6114 -11.2194 37.316 0.68216 -5.66057e-007 3.75422e-006 4.64757e-007 76.1487 -59.3784 56.1426 -93.323 73.239 96.7392 11.1387 36.7936 -0.573054 4.94821e-006 -4.87491e-006 7.03953e-007 
-0.0169911 24.0189 66.4142 89.3125 -89.7452 -90.4204 -0.269839 7.18515 -0.193622 -0.521207 14.3714 -0.357085 -0.521207 14.3714 -0.357085 -1.53126e-006 8.99156 -3.10036e-006 8.33213e-008 -56.9543 2.76928e-007 29.6286 -36.0052 0.110282 -47.0202 -5.17715 -53.1583 -92.7282 -37.4825 -148.383 -41.1959 -0.931962 -19.6572 4.77083e-015 -2.78299e-015 -1.19271e-015 -2.31847e-006 -3.46244e-006 4.97578e-006 -1.23852e-006 -9.00547e-007 -1.15213e-006 4.77083e-015 -2.78299e-015 -1.19271e-015 -0.0146157 -8.7571e-005 3.5066e-006 -1.1963e-006 -1.059e-006 -5.21719e-007 4.77083e-015 -2.78299e-015 -1.19271e-015 -0.0187383 -0.00117878 6.22517e-005 -1.15575e-006 -1.21771e-006 1.08782e-007 4.77083e-015 -2.78299e-015 -1.19271e-015 -0.0122492 -0.0032452 0.000672795 -1.19631e-006 -1.05901e-006 -5.21663e-007 4.77083e-015 -2.78299e-015 -1.19271e-015 -2.31847e-006 -3.46244e-006 4.97578e-006 -1.23852e-006 -9.00547e-007 -1.15213e-006 -29.8225 -35.842 -1.14389 47.1061 -4.78383 53.1889 92.4919 -37.4234 148.425 40.8425 -0.92631 19.6527 2.4532e-006 -2.02454e-006 1.08864e-006 4.47774e-006 4.28656e-007 1.68928e-006 1.2266e-006 -1.01227e-006 5.44321e-007 2.4532e-006 -2.02454e-006 1.08864e-006 0.0150111 -9.15382e-005 -5.25514e-006 1.22664e-006 -1.0122e-006 5.44453e-007 2.4532e-006 -2.02454e-006 1.08864e-006 0.0189829 -0.00119278 -6.38256e-005 1.22666e-006 -1.01218e-006 5.44476e-007 2.4532e-006 -2.02454e-006 1.08864e-006 0.0122811 -0.00325414 -0.000673948 1.22665e-006 -1.01221e-006 5.44393e-007 2.4532e-006 -2.02454e-006 1.08864e-006 4.47774e-006 4.28656e-007 1.68928e-006 1.2266e-006 -1.01227e-006 5.44321e-007 -87.1715 -57.4993 -65.1406 93.2369 73.305 -96.6114 -11.2194 37.316 0.68216 -5.66057e-007 3.75422e-006 4.64757e-007 76.1487 -59.3784 56.1426 -93.323 73.239 96.7392 11.1387 36.7936 -0.573054 4.94821e-006 -4.87491e-006 7.03953e-007 
-0.0169911 24.0189 66.4142 89.3125 -89.7452 -90.4204 -0.270688 7.20418 -0.193205 -0.522946 14.4095 -0.356059 -0.522945 14.4095 -0.356059 1.30172e-005 8.99154 -4.13419e-006 -6.47259e-008 -57.336 2.03659e-007 29.6434 -36.1198 0.598123 -47.2111 -4.80939 -53.309 -92.2285 -37.2214 -148.195 -40.9473 -1.04096 -19.5431 2.39258e-006 2.1181e-006 1.043e-006 1.19629e-006 1.05905e-006 5.215e-007 2.39258e-006 2.1181e-006 1.043e-006 2.39258e-006 2.1181e-006 1.043e-006 -0.0146262 -9.30343e-005 4.21982e-006 2.39266e-006 2.11797e-006 1.04327e-006 2.39258e-006 2.1181e-006 1.043e-006 -0.0187437 -0.0011743 6.08495e-005 2.3927e-006 2.11793e-006 1.04332e-006 2.39258e-006 2.1181e-006 1.043e-006 -0.0122688 -0.00325136 0.000675736 2.39269e-006 2.11799e-006 1.04316e-006 2.39258e-006 2.1181e-006 1.043e-006 1.19629e-006 1.05905e-006 5.215e-007 2.39258e-006 2.1181e-006 1.043e-006 -29.9338 -35.952 -1.69844 47.3063 -4.41067 53.3176 92.0051 -37.1678 148.244 40.5593 -1.05375 19.5945 -1.22661e-006 1.01226e-006 -5.44301e-007 1.77832e-007 -8.68163e-008 -9.13801e-007 -1.22661e-006 1.01226e-006 -5.44301e-007 -1.22661e-006 1.01226e-006 -5.44301e-007 0.0149963 -8.9137e-005 -6.54573e-007 -1.22665e-006 1.01219e-006 -5.44432e-007 -1.22661e-006 1.01226e-006 -5.44301e-007 0.0190034 -0.00119285 -5.6777e-005 -1.22666e-006 1.01217e-006 -5.44456e-007 -1.22661e-006 1.01226e-006 -5.44301e-007 0.012258 -0.00324477 -0.00067417 -1.22666e-006 1.0122e-006 -5.44373e-007 -1.22661e-006 1.01226e-006 -5.44301e-007 1.77832e-007 -8.68163e-008 -9.13801e-007 -1.22661e-006 1.01226e-006 -5.44301e-007 -87.1715 -57.4993 -65.1406 93.2369 73.305 -96.6114 -11.2194 37.316 0.68216 -5.66057e-007 3.75422e-006 4.64757e-007 76.1487 -59.3784 56.1426 -93.323 73.239 96.7392 11.1387 36.7936 -0.573054 4.94821e-006 -4.87491e-006 7.03953e-007 
-0.0169911 24.0189 66.4142 89.3125 -89.7452 -90.4204 -0.271537 7.2233 -0.192783 -0.524685 14.4476 -0.355021 -0.524684 14.4476 -0.355021 -1.27392e-005 8.99228 5.91214e-006 -3.64206e-007 -57.7178 -5.66714e-007 29.6595 -36.2343 1.08684 -47.401 -4.44106 -53.4585 -91.7314 -36.959 -148.011 -40.6986 -1.14947 -19.4285 -4.32962e-008 1.58735e-007 -6.31341e-007 3.18055e-015 1.09332e-015 -2.38542e-015 3.18055e-015 6.95746e-016 -0 -4.32962e-008 1.58735e-007 -6.31341e-007 -0.0146124 -8.66215e-005 -3.59387e-007 -3.18055e-015 -6.36111e-015 -7.95139e-016 -4.32962e-008 1.58735e-007 -6.31341e-007 -0.0187507 -0.00117548 5.84503e-005 -1.59028e-015 1.09332e-014 3.57812e-015 -4.32962e-008 1.58735e-007 -6.31341e-007 -0.0122755 -0.00325045 0.000683939 -8.77264e-031 1.05356e-014 4.77083e-015 -4.32962e-008 1.58735e-007 -6.31341e-007 3.18055e-015 1.09332e-015 -2.38542e-015 3.18055e-015 6.95746e-016 -0 -30.0466 -36.0612 -2.25418 47.5056 -4.03695 53.4449 91.5209 -36.9109 148.066 40.2759 -1.18093 19.5357 -1.22661e-006 1.01225e-006 -5.44281e-007 1.22661e-006 -1.01225e-006 5.44281e-007 3.18055e-015 -3.57812e-015 7.95139e-016 -1.22661e-006 1.01225e-006 -5.44281e-007 0.0150143 -8.96231e-005 -3.91254e-006 -1.59028e-015 -1.2921e-014 3.18055e-015 -1.22661e-006 1.01225e-006 -5.44281e-007 0.0189905 -0.00118789 -5.06914e-005 4.77083e-015 1.78906e-015 7.95139e-016 -1.22661e-006 1.01225e-006 -5.44281e-007 0.0122936 -0.00325267 -0.000674917 -3.18055e-015 -3.77691e-015 1.59028e-015 -1.22661e-006 1.01225e-006 -5.44281e-007 1.22661e-006 -1.01225e-006 5.44281e-007 3.18055e-015 -3.57812e-015 7.95139e-016 -87.1715 -57.4993 -65.1406 93.2369 73.305 -96.6114 -11.2194 37.316 0.68216 -5.66057e-007 3.75422e-006 4.64757e-007 76.1487 -59.3784 56.1426 -93.323 73.239 96.7392 11.1387 36.7936 -0.573054 4.94821e-006 -4.87491e-006 7.03953e-007 
